<svg width="25" height="18" viewBox="0 0 25 18" fill="none" xmlns="http://www.w3.org/2000/svg">
<path d="M22.4158 17.125H2.58425C2.08133 17.124 1.59927 16.9015 1.24373 16.5063C0.888193 16.1111 0.688169 15.5754 0.6875 15.0166V2.35938C0.687946 1.80041 0.887871 1.26445 1.24344 0.869031C1.599 0.473608 2.08118 0.250993 2.58425 0.25H22.4158C22.9187 0.250992 23.4007 0.473479 23.7563 0.8687C24.1118 1.26392 24.3118 1.79964 24.3125 2.35844V15.0156C24.3131 15.2926 24.2644 15.5671 24.1693 15.8231C24.0742 16.0792 23.9345 16.3119 23.7583 16.5079C23.5821 16.7039 23.3728 16.8593 23.1424 16.9652C22.912 17.0711 22.6651 17.1254 22.4158 17.125Z" fill="#00A6ED"/>
<path d="M18.7319 11.5H3.73681C3.59933 11.4993 3.46769 11.4381 3.37063 11.3299C3.27357 11.2217 3.21897 11.0753 3.21875 10.9225V8.3275C3.21875 8.01531 3.44825 7.75 3.73681 7.75H18.7319C19.0121 7.75 19.25 8.00594 19.25 8.3275V10.9319C19.2497 11.007 19.236 11.0813 19.2098 11.1506C19.1835 11.2198 19.1452 11.2827 19.0971 11.3354C19.049 11.3882 18.992 11.4299 18.9293 11.4582C18.8666 11.4864 18.7996 11.5006 18.7319 11.5Z" fill="#F4F4F4"/>
<path d="M20.3916 15.25H21.9053C22 15.2506 22.0938 15.2304 22.1814 15.1904C22.269 15.1504 22.3485 15.0916 22.4155 15.0172C22.4824 14.9428 22.5354 14.8544 22.5714 14.7571C22.6073 14.6598 22.6256 14.5555 22.625 14.4503V12.7685C22.6256 12.6633 22.6073 12.559 22.5714 12.4617C22.5354 12.3644 22.4824 12.276 22.4155 12.2016C22.3485 12.1272 22.269 12.0683 22.1814 12.0284C22.0938 11.9884 22 11.9681 21.9053 11.9688H20.3916C20.2969 11.9681 20.2031 11.9884 20.1155 12.0284C20.0279 12.0683 19.9484 12.1272 19.8814 12.2016C19.8145 12.276 19.7615 12.3644 19.7255 12.4617C19.6896 12.559 19.6713 12.6633 19.6719 12.7685V14.4503C19.6734 14.6619 19.7498 14.8643 19.8844 15.0139C20.019 15.1635 20.2012 15.2483 20.3916 15.25Z" fill="#FFF478"/>
<path d="M24.3125 3.0625H0.6875V5.875H24.3125V3.0625Z" fill="#321B41"/>
<path d="M4.0625 9.625C4.0625 9.50068 4.10695 9.38145 4.18606 9.29354C4.26518 9.20564 4.37249 9.15625 4.48438 9.15625H13.7656C13.8775 9.15625 13.9848 9.20564 14.0639 9.29354C14.1431 9.38145 14.1875 9.50068 14.1875 9.625C14.1875 9.74932 14.1431 9.86855 14.0639 9.95646C13.9848 10.0444 13.8775 10.0938 13.7656 10.0938H4.48438C4.37249 10.0938 4.26518 10.0444 4.18606 9.95646C4.10695 9.86855 4.0625 9.74932 4.0625 9.625Z" fill="#9B9B9B"/>
</svg>
